<svg width="40" height="40" viewBox="0 0 40 40" fill="none" xmlns="http://www.w3.org/2000/svg">
<g clip-path="url(#clip0_269_6492)">
<rect width="40" height="40" rx="8" fill="#FF5A49"/>
<g opacity="0.5">
<path d="M26.25 49.625C26.25 66.5387 12.5387 80.25 -4.375 80.25C-21.2887 80.25 -35 66.5387 -35 49.625C-35 32.7113 -21.2887 19 -4.375 19C12.5387 19 26.25 32.7113 26.25 49.625ZM-33.6872 49.625C-33.6872 65.8137 -20.5637 78.9372 -4.375 78.9372C11.8137 78.9372 24.9372 65.8137 24.9372 49.625C24.9372 33.4363 11.8137 20.3128 -4.375 20.3128C-20.5637 20.3128 -33.6872 33.4363 -33.6872 49.625Z" fill="#F7FEE9"/>
<path d="M23.2819 49.625C23.2819 64.9138 10.8995 77.3078 -4.375 77.3078C-19.6495 77.3078 -32.0319 64.9138 -32.0319 49.625C-32.0319 34.3362 -19.6495 21.9421 -4.375 21.9421C10.8995 21.9421 23.2819 34.3362 23.2819 49.625ZM-30.8464 49.625C-30.8464 64.2584 -18.9947 76.1211 -4.375 76.1211C10.2447 76.1211 22.0964 64.2584 22.0964 49.625C22.0964 34.9915 10.2447 23.1288 -4.375 23.1288C-18.9947 23.1288 -30.8464 34.9915 -30.8464 49.625Z" fill="#F7FEE9"/>
<path d="M20.4488 50.0261C20.4488 63.7639 9.33484 74.9006 -4.37496 74.9006C-18.0848 74.9006 -29.1987 63.7639 -29.1987 50.0261C-29.1987 36.2884 -18.0848 25.1517 -4.37496 25.1517C9.33484 25.1517 20.4488 36.2884 20.4488 50.0261ZM-28.1346 50.0261C-28.1346 63.175 -17.4971 73.8343 -4.37496 73.8343C8.74715 73.8343 19.3847 63.175 19.3847 50.0261C19.3847 36.8773 8.74715 26.218 -4.37496 26.218C-17.4971 26.218 -28.1346 36.8773 -28.1346 50.0261Z" fill="#F7FEE9"/>
<path d="M17.7506 49.5581C17.7506 61.7079 7.81443 71.5572 -4.44243 71.5572C-16.6993 71.5572 -26.6354 61.7079 -26.6354 49.5581C-26.6354 37.4083 -16.6993 27.5589 -4.44243 27.5589C7.81443 27.5589 17.7506 37.4083 17.7506 49.5581ZM-25.6841 49.5581C-25.6841 61.187 -16.1739 70.6142 -4.44243 70.6142C7.28902 70.6142 16.7992 61.187 16.7992 49.5581C16.7992 37.9291 7.28902 28.5019 -4.44243 28.5019C-16.1739 28.5019 -25.6841 37.9291 -25.6841 49.5581Z" fill="#F7FEE9"/>
<path d="M14.5127 49.5581C14.5127 59.9353 6.02618 68.3476 -4.44244 68.3476C-14.9111 68.3476 -23.3976 59.9353 -23.3976 49.5581C-23.3976 39.1809 -14.9111 30.7685 -4.44244 30.7685C6.02618 30.7685 14.5127 39.1809 14.5127 49.5581ZM-22.585 49.5581C-22.585 59.4904 -14.4623 67.5422 -4.44244 67.5422C5.57743 67.5422 13.7001 59.4904 13.7001 49.5581C13.7001 39.6257 5.57743 31.574 -4.44244 31.574C-14.4623 31.574 -22.585 39.6257 -22.585 49.5581Z" fill="#F7FEE9"/>
<path d="M11.4097 49.5581C11.4097 58.2365 4.31242 65.2718 -4.44248 65.2718C-13.1974 65.2718 -20.2946 58.2365 -20.2946 49.5581C-20.2946 40.8797 -13.1974 33.8444 -4.44248 33.8444C4.31242 33.8444 11.4097 40.8797 11.4097 49.5581ZM-19.6151 49.5581C-19.6151 57.8645 -12.8221 64.5982 -4.44248 64.5982C3.93713 64.5982 10.7301 57.8645 10.7301 49.5581C10.7301 41.2517 3.93713 34.518 -4.44248 34.518C-12.8221 34.518 -19.6151 41.2517 -19.6151 49.5581Z" fill="#F7FEE9"/>
<path d="M9.25111 49.5581C9.25111 57.0548 3.12029 63.132 -4.44245 63.132C-12.0052 63.132 -18.136 57.0548 -18.136 49.5581C-18.136 42.0614 -12.0052 35.9841 -4.44245 35.9841C3.12029 35.9841 9.25111 42.0614 9.25111 49.5581ZM-17.549 49.5581C-17.549 56.7334 -11.681 62.5502 -4.44245 62.5502C2.7961 62.5502 8.66411 56.7334 8.66411 49.5581C8.66411 42.3828 2.7961 36.566 -4.44245 36.566C-11.681 36.566 -17.549 42.3828 -17.549 49.5581Z" fill="#F7FEE9"/>
<path d="M5.87831 49.5581C5.87831 55.5776 0.955547 60.4574 -5.117 60.4574C-11.1895 60.4574 -16.1123 55.5776 -16.1123 49.5581C-16.1123 43.5386 -11.1895 38.6588 -5.117 38.6588C0.955547 38.6588 5.87831 43.5386 5.87831 49.5581ZM-15.641 49.5581C-15.641 55.3196 -10.9292 59.9902 -5.117 59.9902C0.695236 59.9902 5.40699 55.3196 5.40699 49.5581C5.40699 43.7967 0.695236 39.1261 -5.117 39.1261C-10.9292 39.1261 -15.641 43.7967 -15.641 49.5581Z" fill="#F7FEE9"/>
<path d="M3.31498 49.9593C3.31498 54.5755 -0.460155 58.3177 -5.11702 58.3177C-9.77388 58.3177 -13.549 54.5755 -13.549 49.9593C-13.549 45.3431 -9.77388 41.601 -5.11702 41.601C-0.460155 41.601 3.31498 45.3431 3.31498 49.9593ZM-13.1876 49.9593C-13.1876 54.3776 -9.57425 57.9594 -5.11702 57.9594C-0.659779 57.9594 2.95353 54.3776 2.95353 49.9593C2.95353 45.541 -0.659779 41.9593 -5.11702 41.9593C-9.57425 41.9593 -13.1876 45.541 -13.1876 49.9593Z" fill="#F7FEE9"/>
<path d="M2.10075 50.0262C2.10075 53.9407 -1.10056 57.114 -5.04957 57.114C-8.99859 57.114 -12.1999 53.9407 -12.1999 50.0262C-12.1999 46.1116 -8.99859 42.9383 -5.04957 42.9383C-1.10056 42.9383 2.10075 46.1116 2.10075 50.0262ZM-11.8934 50.0262C-11.8934 53.7729 -8.82931 56.8102 -5.04957 56.8102C-1.26984 56.8102 1.79425 53.7729 1.79425 50.0262C1.79425 46.2794 -1.26984 43.2421 -5.04957 43.2421C-8.82931 43.2421 -11.8934 46.2794 -11.8934 50.0262Z" fill="#F7FEE9"/>
<path d="M-0.057827 49.9594C-0.057827 52.7291 -2.3229 54.9744 -5.11702 54.9744C-7.91114 54.9744 -10.1762 52.7291 -10.1762 49.9594C-10.1762 47.1896 -7.91114 44.9443 -5.11702 44.9443C-2.3229 44.9443 -0.057827 47.1896 -0.057827 49.9594ZM-9.95935 49.9594C-9.95935 52.6103 -7.79136 54.7594 -5.11702 54.7594C-2.44268 54.7594 -0.274696 52.6103 -0.274696 49.9594C-0.274696 47.3084 -2.44268 45.1593 -5.11702 45.1593C-7.79136 45.1593 -9.95935 47.3084 -9.95935 49.9594Z" fill="#F7FEE9"/>
<path d="M-1.67671 49.625C-1.67671 51.3237 -3.18677 52.7008 -5.04951 52.7008C-6.91225 52.7008 -8.42231 51.3237 -8.42231 49.625C-8.42231 47.9262 -6.91225 46.5491 -5.04951 46.5491C-3.18677 46.5491 -1.67671 47.9262 -1.67671 49.625ZM-8.27773 49.625C-8.27773 51.2509 -6.83241 52.569 -5.04951 52.569C-3.26661 52.569 -1.82129 51.2509 -1.82129 49.625C-1.82129 47.999 -3.26661 46.6809 -5.04951 46.6809C-6.83241 46.6809 -8.27773 47.999 -8.27773 49.625Z" fill="#F7FEE9"/>
<path d="M-3.16078 49.625C-3.16078 50.5851 -4.00641 51.3635 -5.04955 51.3635C-6.09269 51.3635 -6.93831 50.5851 -6.93831 49.625C-6.93831 48.6648 -6.09269 47.8864 -5.04955 47.8864C-4.00641 47.8864 -3.16078 48.6648 -3.16078 49.625ZM-6.85735 49.625C-6.85735 50.544 -6.04797 51.289 -5.04955 51.289C-4.05113 51.289 -3.24175 50.544 -3.24175 49.625C-3.24175 48.7059 -4.05113 47.9609 -5.04955 47.9609C-6.04797 47.9609 -6.85735 48.7059 -6.85735 49.625Z" fill="#F7FEE9"/>
</g>
<g opacity="0.5">
<path d="M83.19 -0.405025C83.19 18.149 68.149 33.1899 49.595 33.1899C31.041 33.1899 16 18.149 16 -0.405025C16 -18.959 31.041 -34 49.595 -34C68.149 -34 83.19 -18.959 83.19 -0.405025ZM17.4401 -0.405025C17.4401 17.3536 31.8363 31.7498 49.595 31.7498C67.3537 31.7498 81.7499 17.3536 81.7499 -0.405025C81.7499 -18.1637 67.3537 -32.5599 49.595 -32.5599C31.8363 -32.5599 17.4401 -18.1637 17.4401 -0.405025Z" fill="#F4FFEE"/>
<path d="M79.9341 -0.40498C79.9341 16.3665 66.3508 29.9625 49.595 29.9625C32.8392 29.9625 19.2559 16.3665 19.2559 -0.40498C19.2559 -17.1765 32.8392 -30.7725 49.595 -30.7725C66.3508 -30.7725 79.9341 -17.1765 79.9341 -0.40498ZM20.5564 -0.40498C20.5564 15.6476 33.5574 28.6608 49.595 28.6608C65.6325 28.6608 78.6336 15.6476 78.6336 -0.40498C78.6336 -16.4576 65.6325 -29.4707 49.595 -29.4707C33.5574 -29.4707 20.5564 -16.4576 20.5564 -0.40498Z" fill="#F4FFEE"/>
<path d="M76.8262 0.0350533C76.8262 15.1051 64.6344 27.3218 49.595 27.3218C34.5557 27.3218 22.3638 15.1051 22.3638 0.0350533C22.3638 -15.035 34.5557 -27.2517 49.595 -27.2517C64.6344 -27.2517 76.8262 -15.035 76.8262 0.0350533ZM23.5312 0.0350533C23.5312 14.4591 35.2004 26.1521 49.595 26.1521C63.9897 26.1521 75.6589 14.4591 75.6589 0.0350533C75.6589 -14.389 63.9897 -26.082 49.595 -26.082C35.2004 -26.082 23.5312 -14.389 23.5312 0.0350533Z" fill="#F4FFEE"/>
<path d="M73.8663 -0.478436C73.8663 12.8497 62.9666 23.6542 49.5211 23.6542C36.0755 23.6542 25.1758 12.8497 25.1758 -0.478436C25.1758 -13.8065 36.0755 -24.6111 49.5211 -24.6111C62.9666 -24.6111 73.8663 -13.8065 73.8663 -0.478436ZM26.2194 -0.478436C26.2194 12.2783 36.6519 22.6197 49.5211 22.6197C62.3902 22.6197 72.8227 12.2783 72.8227 -0.478436C72.8227 -13.2352 62.3902 -23.5766 49.5211 -23.5766C36.6519 -23.5766 26.2194 -13.2352 26.2194 -0.478436Z" fill="#F4FFEE"/>
<path d="M70.3144 -0.47839C70.3144 10.9052 61.0048 20.1334 49.521 20.1334C38.0371 20.1334 28.7276 10.9052 28.7276 -0.47839C28.7276 -11.862 38.0371 -21.0902 49.521 -21.0902C61.0048 -21.0902 70.3144 -11.862 70.3144 -0.47839ZM29.6189 -0.47839C29.6189 10.4172 38.5294 19.2498 49.521 19.2498C60.5126 19.2498 69.423 10.4172 69.423 -0.47839C69.423 -11.374 60.5126 -20.2066 49.521 -20.2066C38.5294 -20.2066 29.6189 -11.374 29.6189 -0.47839Z" fill="#F4FFEE"/>
<path d="M66.9105 -0.478378C66.9105 9.04168 59.125 16.7592 49.521 16.7592C39.9171 16.7592 32.1315 9.04168 32.1315 -0.478378C32.1315 -9.99844 39.9171 -17.716 49.521 -17.716C59.125 -17.716 66.9105 -9.99844 66.9105 -0.478378ZM32.877 -0.478378C32.877 8.63359 40.3288 16.0203 49.521 16.0203C58.7133 16.0203 66.1651 8.63359 66.1651 -0.478378C66.1651 -9.59035 58.7133 -16.9771 49.521 -16.9771C40.3288 -16.9771 32.877 -9.59035 32.877 -0.478378Z" fill="#F4FFEE"/>
<path d="M64.5426 -0.478382C64.5426 7.74533 57.8172 14.412 49.521 14.412C41.2248 14.412 34.4994 7.74533 34.4994 -0.478382C34.4994 -8.7021 41.2248 -15.3687 49.521 -15.3687C57.8172 -15.3687 64.5426 -8.7021 64.5426 -0.478382ZM35.1434 -0.478382C35.1434 7.39281 41.5804 13.7737 49.521 13.7737C57.4615 13.7737 63.8986 7.39281 63.8986 -0.478382C63.8986 -8.34958 57.4615 -14.7304 49.521 -14.7304C41.5804 -14.7304 35.1434 -8.34958 35.1434 -0.478382Z" fill="#F4FFEE"/>
<path d="M60.8427 -0.478401C60.8427 6.12488 55.4425 11.4779 48.7811 11.4779C42.1196 11.4779 36.7194 6.12488 36.7194 -0.478401C36.7194 -7.08168 42.1196 -12.4347 48.7811 -12.4347C55.4425 -12.4347 60.8427 -7.08168 60.8427 -0.478401ZM37.2365 -0.478401C37.2365 5.84182 42.4052 10.9654 48.7811 10.9654C55.157 10.9654 60.3257 5.84182 60.3257 -0.478401C60.3257 -6.79862 55.157 -11.9222 48.7811 -11.9222C42.4052 -11.9222 37.2365 -6.79862 37.2365 -0.478401Z" fill="#F4FFEE"/>
<path d="M58.0307 -0.0382385C58.0307 5.02562 53.8895 9.1307 48.781 9.1307C43.6725 9.1307 39.5313 5.02562 39.5313 -0.0382385C39.5313 -5.1021 43.6725 -9.20717 48.781 -9.20717C53.8895 -9.20717 58.0307 -5.1021 58.0307 -0.0382385ZM39.9278 -0.0382385C39.9278 4.80855 43.8915 8.73765 48.781 8.73765C53.6705 8.73765 57.6342 4.80855 57.6342 -0.0382385C57.6342 -4.88503 53.6705 -8.81413 48.781 -8.81413C43.8915 -8.81413 39.9278 -4.88503 39.9278 -0.0382385Z" fill="#F4FFEE"/>
<path d="M56.6988 0.0350952C56.6988 4.32925 53.187 7.81035 48.855 7.81035C44.523 7.81035 41.0113 4.32925 41.0113 0.0350952C41.0113 -4.25906 44.523 -7.74016 48.855 -7.74016C53.187 -7.74016 56.6988 -4.25906 56.6988 0.0350952ZM41.3475 0.0350952C41.3475 4.14517 44.7087 7.47705 48.855 7.47705C53.0013 7.47705 56.3626 4.14517 56.3626 0.0350952C56.3626 -4.07499 53.0013 -7.40687 48.855 -7.40687C44.7087 -7.40687 41.3475 -4.07499 41.3475 0.0350952Z" fill="#F4FFEE"/>
<path d="M54.3308 -0.0381813C54.3308 3.00014 51.8461 5.46318 48.781 5.46318C45.7159 5.46318 43.2312 3.00014 43.2312 -0.0381813C43.2312 -3.0765 45.7159 -5.53954 48.781 -5.53954C51.8461 -5.53954 54.3308 -3.0765 54.3308 -0.0381813ZM43.4691 -0.0381813C43.4691 2.8699 45.8473 5.22736 48.781 5.22736C51.7147 5.22736 54.0929 2.8699 54.0929 -0.0381813C54.0929 -2.94625 51.7147 -5.30372 48.781 -5.30372C45.8473 -5.30372 43.4691 -2.94625 43.4691 -0.0381813Z" fill="#F4FFEE"/>
<path d="M52.5549 -0.404999C52.5549 1.4585 50.8984 2.96917 48.855 2.96917C46.8116 2.96917 45.1551 1.4585 45.1551 -0.404999C45.1551 -2.2685 46.8116 -3.77917 48.855 -3.77917C50.8984 -3.77917 52.5549 -2.2685 52.5549 -0.404999ZM45.3137 -0.404999C45.3137 1.37862 46.8992 2.82453 48.855 2.82453C50.8108 2.82453 52.3963 1.37862 52.3963 -0.404999C52.3963 -2.18862 50.8108 -3.63453 48.855 -3.63453C46.8992 -3.63453 45.3137 -2.18862 45.3137 -0.404999Z" fill="#F4FFEE"/>
<path d="M50.9269 -0.405022C50.9269 0.648262 49.9993 1.50212 48.855 1.50212C47.7107 1.50212 46.783 0.648262 46.783 -0.405022C46.783 -1.45831 47.7107 -2.31216 48.855 -2.31216C49.9993 -2.31216 50.9269 -1.45831 50.9269 -0.405022ZM46.8719 -0.405022C46.8719 0.603111 47.7597 1.42036 48.855 1.42036C49.9502 1.42036 50.8381 0.603111 50.8381 -0.405022C50.8381 -1.41315 49.9502 -2.23041 48.855 -2.23041C47.7597 -2.23041 46.8719 -1.41315 46.8719 -0.405022Z" fill="#F4FFEE"/>
</g>
<g filter="url(#filter0_b_269_6492)">
<rect x="4" y="4" width="31.88" height="31.88" rx="1.56" fill="white" fill-opacity="0.07"/>
<path d="M7 14H8.35769V18.8738H7V14Z" fill="white"/>
<path d="M11.4645 15.0026C11.6827 15.0026 11.8799 15.0397 12.0563 15.114C12.2327 15.1883 12.3836 15.295 12.5089 15.4343C12.6342 15.5689 12.7317 15.7337 12.8013 15.9286C12.8709 16.1236 12.9057 16.3417 12.9057 16.5831V18.8738H11.6107V16.7572C11.6107 16.3208 11.4483 16.1027 11.1233 16.1027C10.9191 16.1027 10.7613 16.17 10.6499 16.3046C10.5431 16.4392 10.4897 16.6272 10.4897 16.8686V18.8738H9.19472V15.114H10.0998L10.2809 15.5039C10.4201 15.3461 10.5895 15.2231 10.7891 15.1349C10.9934 15.0467 11.2185 15.0026 11.4645 15.0026Z" fill="white"/>
<path d="M17.3548 15.114L15.8439 18.8738H14.6673L13.1355 15.114H14.5559L15.266 17.342L15.9693 15.114H17.3548Z" fill="white"/>
<path d="M21.4767 16.9591C21.4767 17.0148 21.4744 17.0705 21.4697 17.1262C21.4651 17.1819 21.4581 17.2399 21.4488 17.3002H18.6568C18.6986 17.5184 18.7845 17.6832 18.9145 17.7946C19.0491 17.9013 19.2185 17.9547 19.4227 17.9547C19.5759 17.9547 19.7105 17.9245 19.8266 17.8642C19.9472 17.7992 20.0401 17.711 20.1051 17.5996H21.3931C21.3281 17.8131 21.233 18.0081 21.1077 18.1845C20.9823 18.3562 20.8338 18.5024 20.6621 18.6231C20.495 18.7438 20.3046 18.8366 20.0911 18.9016C19.8823 18.9666 19.6595 18.9991 19.4227 18.9991C19.1303 18.9991 18.8588 18.948 18.6081 18.8459C18.3621 18.7438 18.1463 18.6046 17.9606 18.4282C17.7796 18.2471 17.638 18.0359 17.5359 17.7946C17.4338 17.5486 17.3827 17.2817 17.3827 16.9939C17.3827 16.7061 17.4338 16.4392 17.5359 16.1932C17.638 15.9472 17.7796 15.736 17.9606 15.5596C18.1416 15.3786 18.3575 15.2393 18.6081 15.1419C18.8588 15.0397 19.1303 14.9887 19.4227 14.9887C19.7244 14.9887 20.0006 15.0397 20.2513 15.1419C20.5066 15.244 20.7247 15.3832 20.9057 15.5596C21.0868 15.736 21.226 15.9449 21.3235 16.1862C21.4256 16.423 21.4767 16.6806 21.4767 16.9591ZM19.4227 16.0052C19.2324 16.0052 19.0723 16.0539 18.9423 16.1514C18.817 16.2489 18.7288 16.3928 18.6777 16.5831H20.2025C20.0818 16.1978 19.8219 16.0052 19.4227 16.0052Z" fill="white"/>
<path d="M24.5097 15.0931V16.2837H24.0084C23.7763 16.2837 23.6092 16.3371 23.5071 16.4438C23.4096 16.5506 23.3609 16.7223 23.3609 16.9591V18.8738H22.0659V15.114H22.9292L23.1311 15.5318C23.2658 15.3786 23.4166 15.2672 23.5837 15.1976C23.7508 15.1279 23.9458 15.0931 24.1686 15.0931H24.5097Z" fill="white"/>
<path d="M26.4378 18.9991C26.1825 18.9991 25.9527 18.9666 25.7485 18.9016C25.5443 18.8366 25.3702 18.7461 25.2263 18.6301C25.0871 18.5094 24.978 18.3655 24.8991 18.1984C24.8202 18.0313 24.7807 17.8456 24.7807 17.6414H26.027C26.027 17.776 26.0688 17.8781 26.1523 17.9478C26.2359 18.0127 26.338 18.0452 26.4587 18.0452C26.5562 18.0452 26.642 18.022 26.7163 17.9756C26.7906 17.9245 26.8277 17.8503 26.8277 17.7528C26.8277 17.646 26.765 17.5718 26.6397 17.53C26.5144 17.4836 26.3635 17.4441 26.1872 17.4116C26.0433 17.3884 25.8901 17.3583 25.7276 17.3211C25.5698 17.2794 25.4236 17.2167 25.289 17.1331C25.1544 17.0449 25.043 16.9289 24.9548 16.785C24.8712 16.6411 24.8295 16.4555 24.8295 16.228C24.8295 16.0377 24.8666 15.8683 24.9409 15.7197C25.0198 15.5666 25.1288 15.4366 25.2681 15.3298C25.4073 15.2184 25.5744 15.1349 25.7694 15.0792C25.969 15.0189 26.1895 14.9887 26.4308 14.9887C26.6722 14.9887 26.8904 15.0189 27.0853 15.0792C27.2803 15.1395 27.445 15.2254 27.5797 15.3368C27.7189 15.4482 27.8257 15.5828 27.8999 15.7406C27.9788 15.8984 28.0206 16.0725 28.0253 16.2628H26.8138C26.8138 16.1421 26.7766 16.0539 26.7024 15.9982C26.6328 15.9379 26.5376 15.9077 26.4169 15.9077C26.3102 15.9077 26.2243 15.9333 26.1593 15.9843C26.099 16.0307 26.0688 16.098 26.0688 16.1862C26.0688 16.293 26.1315 16.3673 26.2568 16.409C26.3867 16.4462 26.5399 16.481 26.7163 16.5135C26.8648 16.5413 27.0203 16.5738 27.1828 16.6109C27.3452 16.6481 27.4938 16.7084 27.6284 16.792C27.7676 16.8709 27.8814 16.9823 27.9696 17.1262C28.0577 17.2701 28.1018 17.4604 28.1018 17.6971C28.1018 17.8921 28.0624 18.0708 27.9835 18.2332C27.9046 18.391 27.7909 18.528 27.6423 18.644C27.4984 18.7554 27.3244 18.8413 27.1201 18.9016C26.9159 18.9666 26.6885 18.9991 26.4378 18.9991Z" fill="white"/>
<path d="M32.58 16.9591C32.58 17.0148 32.5777 17.0705 32.573 17.1262C32.5684 17.1819 32.5614 17.2399 32.5522 17.3002H29.7602C29.802 17.5184 29.8878 17.6832 30.0178 17.7946C30.1524 17.9013 30.3218 17.9547 30.5261 17.9547C30.6792 17.9547 30.8138 17.9245 30.9299 17.8642C31.0506 17.7992 31.1434 17.711 31.2084 17.5996H32.4965C32.4315 17.8131 32.3363 18.0081 32.211 18.1845C32.0857 18.3562 31.9371 18.5024 31.7654 18.6231C31.5983 18.7438 31.408 18.8366 31.1945 18.9016C30.9856 18.9666 30.7628 18.9991 30.5261 18.9991C30.2336 18.9991 29.9621 18.948 29.7114 18.8459C29.4654 18.7438 29.2496 18.6046 29.0639 18.4282C28.8829 18.2471 28.7413 18.0359 28.6392 17.7946C28.5371 17.5486 28.486 17.2817 28.486 16.9939C28.486 16.7061 28.5371 16.4392 28.6392 16.1932C28.7413 15.9472 28.8829 15.736 29.0639 15.5596C29.245 15.3786 29.4608 15.2393 29.7114 15.1419C29.9621 15.0397 30.2336 14.9887 30.5261 14.9887C30.8278 14.9887 31.1039 15.0397 31.3546 15.1419C31.6099 15.244 31.828 15.3832 32.0091 15.5596C32.1901 15.736 32.3294 15.9449 32.4268 16.1862C32.5289 16.423 32.58 16.6806 32.58 16.9591ZM30.5261 16.0052C30.3357 16.0052 30.1756 16.0539 30.0456 16.1514C29.9203 16.2489 29.8321 16.3928 29.7811 16.5831H31.3059C31.1852 16.1978 30.9252 16.0052 30.5261 16.0052Z" fill="white"/>
<path d="M9.11563 20.2486C9.37556 20.2486 9.61461 20.2927 9.83277 20.3809C10.0509 20.4691 10.2412 20.5921 10.4037 20.7499C10.5662 20.9031 10.6915 21.0888 10.7797 21.3069C10.8725 21.5204 10.9189 21.7549 10.9189 22.0101C10.9189 22.2654 10.8725 22.5022 10.7797 22.7203C10.6915 22.9338 10.5662 23.1195 10.4037 23.2773C10.2412 23.4351 10.0509 23.5582 9.83277 23.6463C9.61461 23.7345 9.37556 23.7786 9.11563 23.7786H8.38456V25.1224H7.0408V20.2486H9.11563ZM8.95549 22.602C9.13187 22.602 9.27345 22.5486 9.3802 22.4418C9.48696 22.3304 9.54034 22.1865 9.54034 22.0101C9.54034 21.8384 9.48696 21.6968 9.3802 21.5854C9.27345 21.474 9.13187 21.4183 8.95549 21.4183H8.38456V22.602H8.95549Z" fill="white"/>
<path d="M13.9095 21.3417V22.5323H13.4082C13.1762 22.5323 13.0091 22.5857 12.9069 22.6925C12.8095 22.7992 12.7607 22.971 12.7607 23.2077V25.1224H11.4657V21.3626H12.3291L12.531 21.7804C12.6656 21.6272 12.8164 21.5158 12.9835 21.4462C13.1506 21.3766 13.3456 21.3417 13.5684 21.3417H13.9095Z" fill="white"/>
<path d="M16.2287 25.2477C15.9223 25.2477 15.6392 25.199 15.3792 25.1015C15.1239 24.9994 14.9011 24.8601 14.7108 24.6838C14.5252 24.5027 14.379 24.2915 14.2722 24.0502C14.1701 23.8042 14.119 23.5349 14.119 23.2425C14.119 22.9501 14.1701 22.6832 14.2722 22.4418C14.379 22.1958 14.5252 21.9846 14.7108 21.8082C14.9011 21.6272 15.1239 21.488 15.3792 21.3905C15.6392 21.2884 15.9223 21.2373 16.2287 21.2373C16.535 21.2373 16.8158 21.2884 17.0711 21.3905C17.3311 21.488 17.5539 21.6272 17.7395 21.8082C17.9298 21.9846 18.0761 22.1958 18.1782 22.4418C18.2849 22.6832 18.3383 22.9501 18.3383 23.2425C18.3383 23.5349 18.2849 23.8042 18.1782 24.0502C18.0761 24.2915 17.9298 24.5027 17.7395 24.6838C17.5539 24.8601 17.3311 24.9994 17.0711 25.1015C16.8158 25.199 16.535 25.2477 16.2287 25.2477ZM16.2287 24.085C16.4654 24.085 16.658 24.0084 16.8066 23.8552C16.9597 23.6974 17.0363 23.4932 17.0363 23.2425C17.0363 22.9919 16.9597 22.79 16.8066 22.6368C16.658 22.479 16.4654 22.4 16.2287 22.4C15.9919 22.4 15.797 22.479 15.6438 22.6368C15.4906 22.79 15.4141 22.9919 15.4141 23.2425C15.4141 23.4932 15.4906 23.6974 15.6438 23.8552C15.797 24.0084 15.9919 24.085 16.2287 24.085Z" fill="white"/>
<path d="M19.0287 19.7961H20.3028V20.8892H19.0287V19.7961ZM18.235 25.4148H18.5483C18.8639 25.4148 19.0217 25.2477 19.0217 24.9135V21.3626H20.3168V25.018C20.3168 25.5053 20.1752 25.8836 19.892 26.1529C19.6135 26.4221 19.2213 26.5567 18.7154 26.5567H18.235V25.4148Z" fill="white"/>
<path d="M25.0055 23.2077C25.0055 23.2634 25.0032 23.3191 24.9986 23.3748C24.9939 23.4305 24.987 23.4885 24.9777 23.5489H22.1857C22.2275 23.767 22.3134 23.9318 22.4433 24.0432C22.5779 24.15 22.7474 24.2033 22.9516 24.2033C23.1048 24.2033 23.2394 24.1732 23.3554 24.1128C23.4761 24.0478 23.5689 23.9597 23.6339 23.8483H24.922C24.857 24.0618 24.7618 24.2567 24.6365 24.4331C24.5112 24.6048 24.3627 24.7511 24.1909 24.8717C24.0238 24.9924 23.8335 25.0853 23.62 25.1502C23.4111 25.2152 23.1883 25.2477 22.9516 25.2477C22.6592 25.2477 22.3876 25.1967 22.137 25.0945C21.891 24.9924 21.6751 24.8532 21.4895 24.6768C21.3084 24.4958 21.1669 24.2846 21.0647 24.0432C20.9626 23.7972 20.9116 23.5303 20.9116 23.2425C20.9116 22.9547 20.9626 22.6878 21.0647 22.4418C21.1669 22.1958 21.3084 21.9846 21.4895 21.8082C21.6705 21.6272 21.8863 21.488 22.137 21.3905C22.3876 21.2884 22.6592 21.2373 22.9516 21.2373C23.2533 21.2373 23.5295 21.2884 23.7801 21.3905C24.0354 21.4926 24.2536 21.6319 24.4346 21.8082C24.6156 21.9846 24.7549 22.1935 24.8524 22.4349C24.9545 22.6716 25.0055 22.9292 25.0055 23.2077ZM22.9516 22.2538C22.7613 22.2538 22.6011 22.3026 22.4712 22.4C22.3458 22.4975 22.2577 22.6414 22.2066 22.8317H23.7314C23.6107 22.4465 23.3508 22.2538 22.9516 22.2538Z" fill="white"/>
<path d="M27.4537 25.2477C27.152 25.2477 26.8735 25.199 26.6182 25.1015C26.3676 24.9994 26.1494 24.8601 25.9637 24.6838C25.7781 24.5027 25.6342 24.2892 25.5321 24.0432C25.43 23.7972 25.3789 23.528 25.3789 23.2356C25.3789 22.9431 25.43 22.6762 25.5321 22.4349C25.6342 22.1889 25.7758 21.9777 25.9568 21.8013C26.1425 21.6249 26.3629 21.488 26.6182 21.3905C26.8735 21.293 27.152 21.2443 27.4537 21.2443C27.7183 21.2443 27.9643 21.2837 28.1918 21.3626C28.4192 21.4415 28.6188 21.5553 28.7905 21.7038C28.9669 21.8477 29.1108 22.0218 29.2222 22.226C29.3383 22.4302 29.4125 22.6577 29.445 22.9083H28.1848C28.1291 22.7551 28.0339 22.6345 27.8993 22.5463C27.7694 22.4534 27.6208 22.407 27.4537 22.407C27.2216 22.407 27.0337 22.4836 26.8898 22.6368C26.7459 22.79 26.6739 22.9919 26.6739 23.2425C26.6739 23.4885 26.7459 23.6904 26.8898 23.8483C27.0383 24.0061 27.2263 24.085 27.4537 24.085C27.6301 24.085 27.7833 24.0362 27.9133 23.9388C28.0432 23.8367 28.1337 23.702 28.1848 23.5349H29.4589C29.4218 23.7902 29.3452 24.0246 29.2292 24.2382C29.1178 24.447 28.9739 24.6257 28.7975 24.7743C28.6211 24.9228 28.4192 25.0388 28.1918 25.1224C27.9643 25.2059 27.7183 25.2477 27.4537 25.2477Z" fill="white"/>
<path d="M32.5215 23.9875V25.1224H31.6303C31.2079 25.1224 30.8783 25.004 30.6416 24.7673C30.4095 24.5306 30.2935 24.201 30.2935 23.7786V22.3583H29.6042V22.0589L31.2891 20.2626H31.5537V21.3626H32.5006V22.3583H31.5885V23.5558C31.5885 23.6904 31.6256 23.7972 31.6999 23.8761C31.7788 23.9504 31.8856 23.9875 32.0202 23.9875H32.5215Z" fill="white"/>
</g>
</g>
<defs>
<filter id="filter0_b_269_6492" x="-4.7115" y="-4.7115" width="49.3029" height="49.3029" filterUnits="userSpaceOnUse" color-interpolation-filters="sRGB">
<feFlood flood-opacity="0" result="BackgroundImageFix"/>
<feGaussianBlur in="BackgroundImageFix" stdDeviation="4.35575"/>
<feComposite in2="SourceAlpha" operator="in" result="effect1_backgroundBlur_269_6492"/>
<feBlend mode="normal" in="SourceGraphic" in2="effect1_backgroundBlur_269_6492" result="shape"/>
</filter>
<clipPath id="clip0_269_6492">
<rect width="40" height="40" rx="8" fill="white"/>
</clipPath>
</defs>
</svg>
