<svg width="16" height="16" viewBox="0 0 16 16" fill="none" xmlns="http://www.w3.org/2000/svg">
<path d="M7.49961 1.90967C7.77575 1.90967 7.99961 2.13353 7.99961 2.40967V7.0001H12.59C12.8662 7.0001 13.09 7.22395 13.09 7.5001C13.09 7.77624 12.8662 8.0001 12.59 8.0001H7.99961V12.5905C7.99961 12.8667 7.77575 13.0905 7.49961 13.0905C7.22346 13.0905 6.99961 12.8667 6.99961 12.5905V8.0001H2.40918C2.13304 8.0001 1.90918 7.77624 1.90918 7.5001C1.90918 7.22395 2.13304 7.0001 2.40918 7.0001H6.99961V2.40967C6.99961 2.13353 7.22346 1.90967 7.49961 1.90967Z" fill="#222"/>
</svg>
