<svg width="24" height="24" viewBox="0 0 24 24" fill="none" xmlns="http://www.w3.org/2000/svg">
<g clip-path="url(#clip0_203_2067)">
<path fill-rule="evenodd" clip-rule="evenodd" d="M10.9953 1.50269C5.75281 1.50269 1.50293 5.75256 1.50293 10.9951C1.50293 16.2375 5.75281 20.4874 10.9953 20.4874C13.3465 20.4874 15.4981 19.6326 17.1561 18.2167L21.4821 22.5427C21.775 22.8356 22.2499 22.8356 22.5428 22.5427C22.8357 22.2499 22.8357 21.775 22.5428 21.4821L18.2168 17.1561C19.6327 15.498 20.4877 13.3464 20.4877 10.9951C20.4877 5.75256 16.2378 1.50269 10.9953 1.50269ZM3.00293 10.9951C3.00293 6.58099 6.58124 3.00269 10.9953 3.00269C15.4094 3.00269 18.9877 6.58099 18.9877 10.9951C18.9877 15.4091 15.4094 18.9874 10.9953 18.9874C6.58124 18.9874 3.00293 15.4091 3.00293 10.9951Z" fill="#757575"/>
</g>
<defs>
<clipPath id="clip0_203_2067">
<rect width="24" height="24" fill="white"/>
</clipPath>
</defs>
</svg>
