<svg width="24" height="24" viewBox="0 0 24 24" fill="none" xmlns="http://www.w3.org/2000/svg">
<path fill-rule="evenodd" clip-rule="evenodd" d="M16.939 3C18.28 3 19.57 3.53 20.519 4.481C21.469 5.43 22 6.71 22 8.05V15.95C22 18.74 19.73 21 16.939 21H7.06C4.269 21 2 18.74 2 15.95V8.05C2 5.26 4.259 3 7.06 3H16.939ZM18.5299 9.54033L18.6099 9.46033C18.8489 9.17033 18.8489 8.75033 18.5989 8.46033C18.4599 8.31133 18.2689 8.22033 18.0699 8.20033C17.8599 8.18933 17.6599 8.26033 17.5089 8.40033L12.9999 12.0003C12.4199 12.4813 11.5889 12.4813 10.9999 12.0003L6.49993 8.40033C6.18893 8.17033 5.75893 8.20033 5.49993 8.47033C5.22993 8.74033 5.19993 9.17033 5.42893 9.47033L5.55993 9.60033L10.1099 13.1503C10.6699 13.5903 11.3489 13.8303 12.0599 13.8303C12.7689 13.8303 13.4599 13.5903 14.0189 13.1503L18.5299 9.54033Z" fill="#FFAC4D"/>
</svg>
