<svg width="360" height="360" viewBox="0 0 360 360" fill="none" xmlns="http://www.w3.org/2000/svg">
<rect width="360" height="360" rx="24" fill="#FFEBD3"/>
<path fill-rule="evenodd" clip-rule="evenodd" d="M147.496 255H212.496C237.923 255 255 237.164 255 210.625V149.375C255 122.836 237.923 105 212.504 105H147.496C122.077 105 105 122.836 105 149.375V210.625C105 237.164 122.077 255 147.496 255ZM153.741 172.5C143.402 172.5 135 164.087 135 153.75C135 143.413 143.402 135 153.741 135C164.074 135 172.483 143.413 172.483 153.75C172.483 164.087 164.074 172.5 153.741 172.5ZM238.656 202.005C241.168 208.444 239.863 216.184 237.178 222.562C233.995 230.147 227.901 235.89 220.224 238.398C216.815 239.512 213.24 240 209.673 240H146.465C140.175 240 134.609 238.491 130.046 235.681C127.188 233.916 126.683 229.845 128.802 227.206C132.347 222.794 135.846 218.367 139.376 213.901C146.103 205.356 150.635 202.879 155.673 205.054C157.717 205.952 159.769 207.299 161.88 208.723C167.507 212.546 175.327 217.802 185.63 212.098C192.68 208.149 196.769 201.376 200.329 195.478L200.389 195.379C200.641 194.966 200.891 194.552 201.14 194.14L201.141 194.139C202.337 192.159 203.518 190.205 204.854 188.406C206.528 186.153 212.735 179.11 220.774 184.125C225.895 187.283 230.202 191.556 234.81 196.13C236.567 197.879 237.819 199.868 238.656 202.005Z" fill="#FFAC4D"/>
</svg>
