<svg width="512" height="512" viewBox="0 0 512 512" fill="none" xmlns="http://www.w3.org/2000/svg">
<rect width="512" height="512" rx="34.0667" fill="#F7F6F4"/>
<path fill-rule="evenodd" clip-rule="evenodd" d="M209.363 361.958H301.626C337.719 361.958 361.958 336.641 361.958 298.97V212.03C361.958 174.358 337.719 149.042 301.637 149.042H209.363C173.281 149.042 149.042 174.358 149.042 212.03V298.97C149.042 336.641 173.281 361.958 209.363 361.958ZM218.227 244.854C203.551 244.854 191.625 232.912 191.625 218.24C191.625 203.567 203.551 191.625 218.227 191.625C232.894 191.625 244.83 203.567 244.83 218.24C244.83 232.912 232.894 244.854 218.227 244.854ZM338.759 286.734C342.324 295.875 340.472 306.862 336.661 315.914C332.143 326.681 323.493 334.833 312.596 338.393C307.757 339.975 302.683 340.667 297.619 340.667H207.899C198.971 340.667 191.07 338.524 184.593 334.536C180.536 332.031 179.819 326.253 182.827 322.506C187.859 316.244 192.826 309.96 197.836 303.621C207.385 291.492 213.819 287.976 220.97 291.063C223.871 292.337 226.783 294.249 229.78 296.271C237.766 301.698 248.868 309.158 263.491 301.061C273.498 295.456 279.302 285.842 284.356 277.47L284.441 277.33C284.799 276.743 285.154 276.155 285.508 275.57L285.508 275.569C287.207 272.759 288.883 269.986 290.778 267.431C293.155 264.234 301.965 254.237 313.377 261.356C320.646 265.838 326.759 271.903 333.299 278.396C335.794 280.879 337.571 283.702 338.759 286.734Z" fill="#E7DDCB"/>
</svg>
